<?xml version="1.0" encoding="utf-8"?>
<!-- Generator: Adobe Illustrator 24.3.0, SVG Export Plug-In . SVG Version: 6.00 Build 0)  -->
<svg version="1.1" id="Layer_1" xmlns="http://www.w3.org/2000/svg" xmlns:xlink="http://www.w3.org/1999/xlink" x="0px" y="0px"
	 viewBox="0 0 332.7 138.8" style="enable-background:new 0 0 332.7 138.8;" xml:space="preserve">
<style type="text/css">
	.st0{fill:#EC0626;}
	.st1{fill:#89959D;}
	.st2{fill:none;}
	.st3{fill:#385173;}
	.st4{fill:#FA9663;}
</style>
<g>
	<path class="st0" d="M100.7,68.7L86.9,90.8L73.1,68.7h-5.7l16.8,26.9c1.3,2,4.2,2,5.5,0l16.8-26.9H100.7z"/>
	<path class="st1" d="M64.1,91.7H45v-4.4c-1.7,0.5-3.3,1.2-4.9,1.9v2.5h0v4.9h0v0H45v0h19.2V91.7z"/>
	<g>
		<rect x="207.8" y="68.7" class="st0" width="26.4" height="4.9"/>
		<rect x="216.7" y="80.5" class="st0" width="16.4" height="4"/>
		<rect x="207.8" y="91.7" class="st0" width="26.4" height="4.9"/>
		
			<rect x="196.3" y="80.2" transform="matrix(-1.836970e-16 1 -1 -1.836970e-16 292.8773 -127.6211)" class="st0" width="27.9" height="4.9"/>
	</g>
	<g>
		<rect x="145.1" y="91.7" class="st0" width="25" height="4.9"/>
		
			<rect x="133.5" y="80.2" transform="matrix(-1.836970e-16 1 -1 -1.836970e-16 230.1402 -64.8841)" class="st0" width="27.9" height="4.9"/>
	</g>
	<path class="st2" d="M84.8,96.6"/>
	<path class="st0" d="M198.9,68.7l-13.8,22.1l-13.8-22.1h-5.7l16.8,26.9c1.3,2,4.2,2,5.5,0l16.8-26.9H198.9z"/>
	<path class="st2" d="M183,96.6"/>
	<path class="st0" d="M127.1,68.7h-8.7c-7.5,0-13.6,6.1-13.6,13.6V83c0,7.5,6.1,13.6,13.6,13.6h8.7c7.5,0,13.6-6.1,13.6-13.6v-0.6
		C140.7,74.8,134.6,68.7,127.1,68.7z M135.9,83c0,4.8-3.9,8.8-8.8,8.8h-8.7c-4.8,0-8.8-3.9-8.8-8.8v-0.6c0-4.8,3.9-8.8,8.8-8.8h8.7
		c4.8,0,8.8,3.9,8.8,8.8V83z"/>
	<g>
		<rect x="40.1" y="68.7" class="st0" width="24" height="4.9"/>
		<path class="st0" d="M45,68.7v16.1c-1.7,0.5-3.3,1.1-4.9,1.8V68.7H45z"/>
		<path class="st0" d="M71,85C60.8,82,52.1,82.6,45,84.7c-1.7,0.5-3.3,1.1-4.9,1.8C26.8,92.3,20,103.3,20,103.3
			c4.2-13.9,18.1-20.4,18.1-20.4c0.7-0.3,1.3-0.6,2-0.9c1.7-0.7,3.3-1.3,4.9-1.7C60.2,76.3,71,85,71,85z"/>
	</g>
	<g>
		<path class="st0" d="M88,109.6l-3.5,7.3c-0.3,0.6-0.8,1.1-1.6,1.1c-0.8,0-1.2-0.4-1.5-1.1L77,106.4h2.8l3.3,8.2l3.4-7.4
			c0.3-0.7,0.7-1,1.5-1s1.2,0.3,1.5,1l3.2,7.4l3.4-8.2H99c-0.8,1.7-3.9,8.8-4.6,10.5c-0.3,0.6-0.8,1.1-1.5,1.1
			c-0.8,0-1.3-0.4-1.6-1.1L88,109.6z"/>
		<path class="st0" d="M100.1,117.7v-11.3h2.5v11.3H100.1z"/>
		<path class="st0" d="M113.7,117.7l-6.6-4.1v4.1h-2.5v-11.3h8.8c3.2,0,4.5,0.7,4.5,3.4v0.8c0,2.6-1.4,3.3-4.5,3.3h-2l6.6,3.8H113.7
			z M115.4,109.9c0-1.2-0.4-1.4-2.1-1.4h-6.2v3.4h6.2c1.6,0,2.1-0.2,2.1-1.4V109.9z"/>
		<path class="st0" d="M123.7,117.7c-3.3,0-4.3-1-4.3-3.9v-3.5c0-2.9,1-3.9,4.3-3.9h2.8v2.1h-2.8c-1.5,0-1.8,0.4-1.8,1.7v0.8h9.6v2
			h-9.6v0.8c0,1.4,0.3,1.7,1.8,1.7h7.9v2.1H123.7z"/>
		<path class="st0" d="M137.5,117.7c-3.3,0-4.3-1-4.3-3.9v-7.4h2.5v7.3c0,1.3,0.4,1.8,2,1.8h6.7v2.2H137.5z"/>
		<path class="st0" d="M149.9,117.7c-3.3,0-4.3-1-4.3-3.9v-3.5c0-2.9,1-3.9,4.3-3.9h2.8v2.1h-2.8c-1.5,0-1.8,0.4-1.8,1.7v0.8h9.6v2
			h-9.6v0.8c0,1.4,0.3,1.7,1.8,1.7h7.9v2.1H149.9z"/>
		<path class="st0" d="M159.1,117.7v-2.1h8.6c0.9,0,1.3-0.2,1.3-1V114c0-0.7-0.4-1-1.3-1h-5.4c-2.5,0-3.2-0.9-3.2-2.9v-0.6
			c0-2.3,0.9-3.2,3.2-3.2h3.5v2.1h-3.3c-0.8,0-1.1,0.2-1.1,1.1v0.4c0,0.7,0.3,1,1.1,1h5.3c2.5,0,3.4,0.8,3.4,2.9v0.9
			c0,2.1-0.9,2.9-3.4,2.9H159.1z"/>
		<path class="st0" d="M172.5,117.7v-2.1h8.6c0.9,0,1.3-0.2,1.3-1V114c0-0.7-0.4-1-1.3-1h-5.4c-2.5,0-3.2-0.9-3.2-2.9v-0.6
			c0-2.3,0.9-3.2,3.2-3.2h3.5v2.1h-3.3c-0.8,0-1.1,0.2-1.1,1.1v0.4c0,0.7,0.3,1,1.1,1h5.3c2.5,0,3.4,0.8,3.4,2.9v0.9
			c0,2.1-0.9,2.9-3.4,2.9H172.5z"/>
	</g>
	<path class="st3" d="M264.8,54.8c0,0.3,0,0.7,0,1c-0.5-6.9-6.6-12.3-14.1-12.3c-7.8,0-14.1,5.9-14.1,13.2c0,0.4,0,0.9,0.1,1.3
		c-0.2-1-0.4-2.1-0.4-3.2c0-7.6,6.4-13.8,14.3-13.8S264.8,47.2,264.8,54.8z"/>
	<path class="st3" d="M273.1,52.3c0,0.7,0,1.3-0.1,2c-1-11.2-10.7-20-22.5-20c-11.8,0-21.5,8.8-22.5,20c-0.1-0.7-0.1-1.3-0.1-2
		c0-12.1,10.1-21.9,22.6-21.9C263,30.4,273.1,40.2,273.1,52.3z"/>
	<path class="st3" d="M280.7,43.6c-4.9-11.5-16.6-19.6-30.2-19.6c-13.5,0-25,8-30,19.3c3.6-13.4,15.7-23.4,30-23.4
		C265,20,277.2,30.1,280.7,43.6z"/>
	<path class="st3" d="M254.8,65.4c3.2-1.6,5.4-4.9,5.4-8.7c0-5.4-4.4-9.7-9.7-9.7s-9.7,4.4-9.7,9.7c0,3.8,2.2,7.1,5.4,8.7
		c0.1,3,0.6,39.5-25.4,53.3h7.9c2.2-1.2,4.1-2.7,5.9-4.3h31.9c1.8,1.7,3.7,3.1,5.9,4.3h7.9C254.2,104.9,254.7,68.4,254.8,65.4z
		 M250.5,67c0,3.2,0.4,16.1,4.7,28.7h-9.4C250.1,83.1,250.4,70.2,250.5,67z M238.1,110.4c2.5-3.3,4.5-6.9,6.1-10.8h12.4
		c1.6,3.8,3.6,7.5,6.1,10.8H238.1z"/>
	<path class="st4" d="M311.9,42c-4.3-7.3-26.3-2.6-51.6,10.4c0.1,0.1,0.1,0.2,0.2,0.4c23.1-11.6,43-15.8,46.9-9.1
		c4.6,7.8-14.3,27.3-42.1,43.6c-1.9,1.1-3.9,2.2-5.8,3.3c-2,1.1-4,2.2-6,3.2c-0.6,0.3-1.3,0.6-1.9,0.9c-5.1,2.5-10,4.6-14.6,6.3
		c-15.5,5.7-27.4,6.8-30.3,1.8c-4.2-7.1,11.3-24.2,35.4-39.5c-0.1-0.1-0.2-0.2-0.2-0.3c-25.8,16.5-42.4,34.7-37.9,42.4
		c3.1,5.2,15.3,4.3,31.3-1.5c7.7-2.7,16.2-6.6,25-11.4c2.2-1.2,4.4-2.4,6.6-3.7C296.6,71.4,316.8,50.4,311.9,42z"/>
</g>
</svg>
